/* XPM */
static char * right_triangle_xpm[] = {
"16 16 91 1",
" 	c None",
".	c #A6A7FF",
"+	c #9D9DFF",
"@	c #BEBFFF",
"#	c #8383FF",
"$	c #7C7CFF",
"%	c #8E8EFF",
"&	c #8685FF",
"*	c #B3B3FF",
"=	c #7979FF",
"-	c #7272FF",
";	c #6A6AFF",
">	c #6363FF",
",	c #7777FF",
"'	c #6D6DFF",
")	c #A8A8FF",
"!	c #6E6EFF",
"~	c #6867FF",
"{	c #6060FF",
"]	c #5959FF",
"^	c #5252FF",
"/	c #4A4AFF",
"(	c #5F5FFF",
"_	c #5656FF",
":	c #9D9CFF",
"<	c #6564FF",
"[	c #5D5DFF",
"}	c #4E4FFF",
"|	c #4747FF",
"1	c #4040FF",
"2	c #3A39FF",
"3	c #3232FF",
"4	c #3E3EFF",
"5	c #9192FF",
"6	c #5A5AFF",
"7	c #5353FF",
"8	c #4C4CFF",
"9	c #4545FF",
"0	c #3D3DFF",
"a	c #3637FF",
"b	c #2F2FFF",
"c	c #2728FF",
"d	c #2120FF",
"e	c #191AFF",
"f	c #3030FF",
"g	c #2627FF",
"h	c #8686FF",
"i	c #5050FF",
"j	c #4948FF",
"k	c #4241FF",
"l	c #3A3AFF",
"m	c #3333FF",
"n	c #2B2BFF",
"o	c #2525FF",
"p	c #1D1EFF",
"q	c #1617FF",
"r	c #0F0FFF",
"s	c #0708FF",
"t	c #0001FF",
"u	c #00007B",
"v	c #7B7BFF",
"w	c #3737FF",
"x	c #302FFF",
"y	c #2829FF",
"z	c #2222FF",
"A	c #1B1AFF",
"B	c #1313FF",
"C	c #0C0CFF",
"D	c #0505FF",
"E	c #6F6FFF",
"F	c #3B3BFF",
"G	c #3434FF",
"H	c #2D2DFF",
"I	c #2626FF",
"J	c #1E1EFF",
"K	c #1717FF",
"L	c #1010FF",
"M	c #0909FF",
"N	c #6464FF",
"O	c #3131FF",
"P	c #2A2AFF",
"Q	c #2223FF",
"R	c #1B1BFF",
"S	c #1414FF",
"T	c #0D0DFF",
"U	c #1F1FFF",
"V	c #1818FF",
"W	c #1111FF",
"X	c #4E4EFF",
"Y	c #1C1CFF",
"Z	c #1515FF",
"                ",
"  .+            ",
" @#$%&          ",
" *=-;>,'        ",
" )!~{]^/(_      ",
" :<[_}|123|4    ",
" 567890abcdefg  ",
" hijklmnopqrstu ",
" v94wxyzABCDuu  ",
" EFGHIJKLMuu    ",
" NOPQRSTuu      ",
" ]gUVWuu        ",
" XYZuu          ",
"  uu            ",
"                ",
"                "};
