/* XPM */
static char * event_xpm[] = {
"16 16 91 1",
" 	c None",
".	c #B83405",
"+	c #B83410",
"@	c #BA3506",
"#	c #BB3608",
"$	c #B5390F",
"%	c #B83C12",
"&	c #BC3F15",
"*	c #B8431C",
"=	c #BD4820",
"-	c #C14A23",
";	c #BE4F2A",
">	c #C64E26",
",	c #C0512B",
"'	c #C25333",
")	c #C95832",
"!	c #CA5933",
"~	c #C65C39",
"{	c #CE5C36",
"]	c #CA603C",
"^	c #C56241",
"/	c #C66944",
"(	c #D06541",
"_	c #D06547",
":	c #C66A4B",
"<	c #CE6A48",
"[	c #D46844",
"}	c #CA6D4E",
"|	c #D6714E",
"1	c #DB6F4F",
"2	c #CD775A",
"3	c #D97351",
"4	c #CD7D5E",
"5	c #D17B64",
"6	c #CF7F65",
"7	c #DB7C5C",
"8	c #D88063",
"9	c #DF7F5F",
"0	c #D1886B",
"a	c #E28261",
"b	c #D18972",
"c	c #E0876A",
"d	c #D78E77",
"e	c #D59279",
"f	c #DB917A",
"g	c #E2906F",
"h	c #E49277",
"i	c #DE947D",
"j	c #DB9984",
"k	c #E7957A",
"l	c #E29880",
"m	c #E4987B",
"n	c #D99E87",
"o	c #E59B83",
"p	c #DAA08F",
"q	c #E99E86",
"r	c #DEA392",
"s	c #E1A58E",
"t	c #DBA894",
"u	c #EBA893",
"v	c #E1AD99",
"w	c #E7AB94",
"x	c #E3AF9B",
"y	c #E9AD96",
"z	c #DEB2A2",
"A	c #EBAE97",
"B	c #E0B4A4",
"C	c #E6B3A5",
"D	c #E3B7A7",
"E	c #E4B9A8",
"F	c #EDBAAC",
"G	c #E9BDAD",
"H	c #E7BDB3",
"I	c #F0BBA7",
"J	c #F2BFB1",
"K	c #E7C5B8",
"L	c #EFC3B2",
"M	c #EBC8BC",
"N	c #F0C6BB",
"O	c #EECABE",
"P	c #F5C9B8",
"Q	c #F0CDC0",
"R	c #F5D2C5",
"S	c #F0D6CD",
"T	c #F8D4C7",
"U	c #F3D9D0",
"V	c #F5DBD2",
"W	c #F8E5DA",
"X	c #F6E6E1",
"Y	c #FAEAE4",
"Z	c #FCECE7",
"                ",
"   BDB   6}~    ",
"  HMOKD j02^;   ",
" DKSVSMzpf8<,&  ",
"tGOWYXRGrkc3'*. ",
"rzMUYWSLAqc3{&+ ",
"jvFQSTPIwmc1!%. ",
" pxIILIAqh7[>$  ",
" jjtAvuqh9|!&.  ",
"  bdjloh93]=%   ",
"   288791];$    ",
"    :/<('=$     ",
"     ',;*%      ",
"      %$+       ",
"       #        ",
"                "};
