/* XPM */
static char * right_triangle_small_xpm[] = {
"12 12 53 1",
" 	c None",
".	c #00007B",
"+	c #04049C",
"@	c #0303A7",
"#	c #0506C6",
"$	c #0707BD",
"%	c #0505DE",
"&	c #0C0CCE",
"*	c #0D0DEF",
"=	c #1111DE",
"-	c #0F10FF",
";	c #1314FF",
">	c #1414FF",
",	c #1616FF",
"'	c #1919FF",
")	c #1C1DFF",
"!	c #1D1DFF",
"~	c #2121FF",
"{	c #2424FF",
"]	c #2626FF",
"^	c #2A2AFF",
"/	c #2D2DEC",
"(	c #2E2EFF",
"_	c #3030FF",
":	c #3131FF",
"<	c #3232FF",
"[	c #3333FF",
"}	c #3939FF",
"|	c #3D3DFF",
"1	c #4342FF",
"2	c #4243FF",
"3	c #4646FF",
"4	c #4949FF",
"5	c #4C4CFF",
"6	c #4D4DFF",
"7	c #4F4FFF",
"8	c #5050FF",
"9	c #5353FF",
"0	c #5453FF",
"a	c #5A5AFF",
"b	c #5C5CFF",
"c	c #5D5DFF",
"d	c #6766FF",
"e	c #6E6EFF",
"f	c #7070FF",
"g	c #7170FF",
"h	c #7171FF",
"i	c #7676FF",
"j	c #7B7BFF",
"k	c #8888FF",
"l	c #8E8FFF",
"m	c #9999FF",
"n	c #A2A3FF",
"            ",
" nl         ",
" mihg       ",
" kdb940     ",
" ja73|<_(   ",
" e61}_]);-# ",
" c|[^~,*%   ",
" 8:]!>$     ",
" 2{'&       ",
" /=         ",
"            ",
"            "};
